<?xml version="1.0"?>
<svg xmlns="http://www.w3.org/2000/svg" xmlns:xlink="http://www.w3.org/1999/xlink" xmlns:svgjs="http://svgjs.com/svgjs" version="1.1" width="512" height="512" x="0" y="0" viewBox="0 0 511.99973 511" style="enable-background:new 0 0 512 512" xml:space="preserve" class=""><g><path xmlns="http://www.w3.org/2000/svg" d="m458.59375 51.597656c-33.8125-32.640625-78.851562-50.785156-126.820312-51.09375-40.257813-.261718-78.394532 12.007813-110.40625 35.46875-31.046876 22.757813-54.128907 55.164063-64.992188 91.25-7.683594 25.519532-4.527344 53.339844 9.117188 80.449219 28.789062 57.195313 36.921874 109.792969 28.066406 181.535156-4.777344 38.722657 4.386718 70.621094 26.503906 92.253907 20.371094 19.925781 48.027344 31.035156 76.746094 31.035156 2.25 0 4.515625-.066406 6.777344-.207032 26.738281-1.628906 51.8125-12.902343 70.609374-31.742187 18.894532-18.941406 29.753907-43.816406 30.574219-70.039063.265625-8.53125-.523437-17.050781-2.34375-25.324218-5.03125-22.835938 5.804688-47.167969 26.964844-60.542969 52.359375-33.097656 83.238281-89.058594 82.597656-149.695313-.492187-46.777343-19.453125-90.582031-53.394531-123.347656zm-34.90625 140.191406c-8.285156 0-15-6.714843-15-15 0-41.492187-35.050781-75.25-78.136719-75.25-37.078125 0-68.203125 25-76.164062 58.410157 9.59375.359375 19.089843 2.753906 27.625 7.117187 22.4375 11.460938 36.433593 35.695313 34.835937 60.308594-1.574218 24.226562-18.230468 46.410156-41.441406 55.203125-1.75.664063-3.546875.980469-5.3125.980469-6.054688 0-11.753906-3.691406-14.027344-9.691406-2.9375-7.746094.964844-16.402344 8.710938-19.339844 12.414062-4.703125 21.308594-16.398438 22.132812-29.097656.832032-12.835938-6.617187-25.554688-18.542968-31.648438-8-4.085938-17.988282-4.992188-26.71875-2.425781-4.535157 1.332031-9.433594.453125-13.21875-2.378907-3.785157-2.832031-6.015626-7.285156-6.015626-12.011718v-.175782c0-58.035156 48.511719-105.25 108.136719-105.25 59.628907 0 108.136719 47.214844 108.136719 105.25 0 8.285157-6.714844 15-15 15zm0 0" fill="#2d4459" data-original="#000000" style="" class=""/><path xmlns="http://www.w3.org/2000/svg" d="m103.601562 423.53125c-3.917968 0-7.832031-1.523438-10.773437-4.5625-5.765625-5.949219-5.617187-15.445312.332031-21.210938 23.125-22.40625 35.863282-52.222656 35.863282-83.945312 0-31.726562-12.738282-61.539062-35.863282-83.949219-5.949218-5.761719-6.097656-15.257812-.332031-21.210937 5.765625-5.949219 15.261719-6.097656 21.210937-.332032 29.007813 28.109376 44.984376 65.574219 44.984376 105.492188s-15.976563 77.378906-44.984376 105.492188c-2.914062 2.820312-6.679687 4.226562-10.4375 4.226562zm0 0" fill="#2d4459" data-original="#000000" style="" class=""/><path xmlns="http://www.w3.org/2000/svg" d="m59.761719 381.050781c-3.917969 0-7.832031-1.523437-10.773438-4.5625-5.765625-5.949219-5.617187-15.445312.332031-21.210937 11.457032-11.101563 17.769532-25.828125 17.769532-41.464844 0-15.640625-6.3125-30.367188-17.769532-41.46875-5.949218-5.765625-6.097656-15.261719-.332031-21.210938 5.765625-5.949218 15.257813-6.097656 21.210938-.332031 17.339843 16.800781 26.890625 39.179688 26.890625 63.011719 0 23.828125-9.550782 46.207031-26.890625 63.011719-2.914063 2.824219-6.679688 4.226562-10.4375 4.226562zm0 0" fill="#2d4459" data-original="#000000" style="" class=""/><path xmlns="http://www.w3.org/2000/svg" d="m17.304688 331.042969c-9.542969 0-17.304688-7.730469-17.304688-17.230469 0-9.503906 7.761719-17.234375 17.304688-17.234375 9.542968 0 17.304687 7.730469 17.304687 17.234375 0 9.5-7.761719 17.230469-17.304687 17.230469zm0 0" fill="#2d4459" data-original="#000000" style="" class=""/></g></svg>
